{
  "accessors": [
    {
      "bufferView": 2,
      "componentType": 5126,
      "count": 15408,
      "max": [
        1.1998770236968994,
        0.7500001788139343,
        0.13804543018341064
      ],
      "min": [
        -1.1998770236968994,
        -0.7500001788139343,
        -0.12183719873428345
      ],
      "type": "VEC3"
    },
    {
      "bufferView": 2,
      "byteOffset": 184896,
      "componentType": 5126,
      "count": 15408,
      "max": [
        1.0,
        1.0,
        1.0
      ],
      "min": [
        -1.0,
        -1.0,
        -1.0
      ],
      "type": "VEC3"
    },
    {
      "bufferView": 1,
      "componentType": 5126,
      "count": 15408,
      "max": [
        1.0000001192092896,
        1.0000001192092896
      ],
      "min": [
        0.0,
        0.0
      ],
      "type": "VEC2"
    },
    {
      "bufferView": 0,
      "componentType": 5125,
      "count": 78624,
      "type": "SCALAR"
    },
    {
      "bufferView": 2,
      "byteOffset": 369792,
      "componentType": 5126,
      "count": 24706,
      "max": [
        1.1532431840896606,
        0.7176245450973511,
        0.12101829051971436
      ],
      "min": [
        -1.1532431840896606,
        -0.7176245450973511,
        -0.06091398373246193
      ],
      "type": "VEC3"
    },
    {
      "bufferView": 2,
      "byteOffset": 666264,
      "componentType": 5126,
      "count": 24706,
      "max": [
        1.0,
        1.0,
        1.0
      ],
      "min": [
        -1.0,
        -1.0,
        -1.0
      ],
      "type": "VEC3"
    },
    {
      "bufferView": 1,
      "byteOffset": 123264,
      "componentType": 5126,
      "count": 24706,
      "max": [
        0.9871193170547485,
        0.9784165024757385
      ],
      "min": [
        0.012881042435765266,
        0.02158372662961483
      ],
      "type": "VEC2"
    },
    {
      "bufferView": 1,
      "byteOffset": 320912,
      "componentType": 5126,
      "count": 24706,
      "max": [
        0.9871193170547485,
        0.9784165024757385
      ],
      "min": [
        0.012881042435765266,
        0.02158372662961483
      ],
      "type": "VEC2"
    },
    {
      "bufferView": 0,
      "byteOffset": 314496,
      "componentType": 5125,
      "count": 52701,
      "type": "SCALAR"
    },
    {
      "bufferView": 2,
      "byteOffset": 962736,
      "componentType": 5126,
      "count": 6532,
      "max": [
        0.6111276149749756,
        0.45467862486839294,
        0.6149916648864746
      ],
      "min": [
        -0.6111276149749756,
        -0.40679049491882324,
        -0.6499066352844238
      ],
      "type": "VEC3"
    },
    {
      "bufferView": 2,
      "byteOffset": 1041120,
      "componentType": 5126,
      "count": 6532,
      "max": [
        0.9998692274093628,
        0.9998946189880371,
        0.9999995231628418
      ],
      "min": [
        -0.9998692274093628,
        -1.0,
        -1.0
      ],
      "type": "VEC3"
    },
    {
      "bufferView": 1,
      "byteOffset": 518560,
      "componentType": 5126,
      "count": 6532,
      "max": [
        1.0170010328292847,
        1.000000238418579
      ],
      "min": [
        -0.016964634880423546,
        0.0
      ],
      "type": "VEC2"
    },
    {
      "bufferView": 0,
      "byteOffset": 525300,
      "componentType": 5125,
      "count": 29376,
      "type": "SCALAR"
    }
  ],
  "asset": {
    "extras": {
      "author": "pevofficialll (https://sketchfab.com/pevofficialll)",
      "license": "CC-BY-4.0 (http://creativecommons.org/licenses/by/4.0/)",
      "source": "https://sketchfab.com/3d-models/monitorlow-poly-7fde05c9dade4ffc855db8355053dd37",
      "title": "Monitor(Low-Poly)"
    },
    "generator": "Sketchfab-14.81.0",
    "version": "2.0"
  },
  "bufferViews": [
    {
      "buffer": 0,
      "byteLength": 642804,
      "name": "floatBufferViews",
      "target": 34963
    },
    {
      "buffer": 0,
      "byteLength": 570816,
      "byteOffset": 642804,
      "byteStride": 8,
      "name": "floatBufferViews",
      "target": 34962
    },
    {
      "buffer": 0,
      "byteLength": 1119504,
      "byteOffset": 1213620,
      "byteStride": 12,
      "name": "floatBufferViews",
      "target": 34962
    }
  ],
  "buffers": [
    {
      "byteLength": 2333124,
      "uri": "scene.bin"
    }
  ],
  "images": [
    {
      "uri": "textures/Material.003_baseColor.jpeg"
    }
  ],
  "materials": [
    {
      "doubleSided": true,
      "name": "Material",
      "pbrMetallicRoughness": {
        "baseColorFactor": [
          1.0,
          0.95764,
          0.98931,
          1.0
        ],
        "metallicFactor": 0.0
      }
    },
    {
      "doubleSided": true,
      "emissiveFactor": [
        1.0,
        1.0,
        1.0
      ],
      "emissiveTexture": {
        "index": 0,
        "texCoord": 1
      },
      "name": "Material.003",
      "pbrMetallicRoughness": {
        "baseColorTexture": {
          "index": 0
        },
        "metallicFactor": 0.0,
        "roughnessFactor": 0.7809109769979335
      }
    }
  ],
  "meshes": [
    {
      "name": "Monitor_Material_0",
      "primitives": [
        {
          "attributes": {
            "NORMAL": 1,
            "POSITION": 0,
            "TEXCOORD_0": 2
          },
          "indices": 3,
          "material": 0,
          "mode": 4
        }
      ]
    },
    {
      "name": "Monitor_Material.003_0",
      "primitives": [
        {
          "attributes": {
            "NORMAL": 5,
            "POSITION": 4,
            "TEXCOORD_0": 6,
            "TEXCOORD_1": 7
          },
          "indices": 8,
          "material": 1,
          "mode": 4
        }
      ]
    },
    {
      "name": "Plane.001_Material_0",
      "primitives": [
        {
          "attributes": {
            "NORMAL": 10,
            "POSITION": 9,
            "TEXCOORD_0": 11
          },
          "indices": 12,
          "material": 0,
          "mode": 4
        }
      ]
    }
  ],
  "nodes": [
    {
      "children": [
        1
      ],
      "matrix": [
        1.0,
        0.0,
        0.0,
        0.0,
        0.0,
        2.220446049250313e-16,
        -1.0,
        0.0,
        0.0,
        1.0,
        2.220446049250313e-16,
        0.0,
        0.0,
        0.0,
        0.0,
        1.0
      ],
      "name": "Sketchfab_model"
    },
    {
      "children": [
        2
      ],
      "matrix": [
        0.009999999776482582,
        0.0,
        0.0,
        0.0,
        0.0,
        0.0,
        0.009999999776482582,
        0.0,
        0.0,
        -0.009999999776482582,
        0.0,
        0.0,
        0.0,
        0.0,
        0.0,
        1.0
      ],
      "name": "Monitor.fbx"
    },
    {
      "children": [
        3
      ],
      "name": "RootNode"
    },
    {
      "children": [
        4,
        5,
        6
      ],
      "matrix": [
        115.8798828125,
        0.0,
        0.0,
        0.0,
        0.0,
        99.9999999999999,
        4.371138828673792e-06,
        0.0,
        0.0,
        -4.371138828673792e-06,
        99.9999999999999,
        0.0,
        0.0,
        126.75276184082031,
        -3.3081140518188477,
        1.0
      ],
      "name": "Monitor"
    },
    {
      "mesh": 0,
      "name": "Monitor_Material_0"
    },
    {
      "mesh": 1,
      "name": "Monitor_Material.003_0"
    },
    {
      "children": [
        7
      ],
      "matrix": [
        0.7687139511108398,
        0.0,
        0.0,
        0.0,
        0.0,
        -1.6292067939183141e-07,
        -0.9999999999999868,
        0.0,
        0.0,
        0.9999999999999868,
        -1.6292067939183141e-07,
        0.0,
        0.0,
        -0.6293002367019653,
        -0.11933501809835434,
        1.0
      ],
      "name": "Plane.001"
    },
    {
      "mesh": 2,
      "name": "Plane.001_Material_0"
    }
  ],
  "samplers": [
    {
      "magFilter": 9729,
      "minFilter": 9987,
      "wrapS": 10497,
      "wrapT": 10497
    }
  ],
  "scene": 0,
  "scenes": [
    {
      "name": "Sketchfab_Scene",
      "nodes": [
        0
      ]
    }
  ],
  "textures": [
    {
      "sampler": 0,
      "source": 0
    }
  ]
}
